<mxfile host="6b620e35-9882-44f2-8d1c-abb8eed54aba" modified="2020-07-21T04:59:40.400Z" agent="5.0 (Windows NT 10.0; Win64; x64) AppleWebKit/537.36 (KHTML, like Gecko) Code/1.47.2 Chrome/78.0.3904.130 Electron/7.3.2 Safari/537.36" etag="mF7uEhviWdJzOQODG5BS" version="13.1.3" pages="6">
    <diagram id="6hGFLwfOUW9BJ-s0fimq" name="01">
        <mxGraphModel dx="1766" dy="1154" grid="1" gridSize="10" guides="1" tooltips="1" connect="1" arrows="1" fold="1" page="1" pageScale="1" pageWidth="827" pageHeight="1169" math="0" shadow="0">
            <root>
                <mxCell id="0"/>
                <mxCell id="1" parent="0"/>
                <mxCell id="2" value="" style="rounded=0;whiteSpace=wrap;html=1;fillColor=#FFFFFF;strokeColor=none;" parent="1" vertex="1">
                    <mxGeometry x="100" y="20" width="480" height="360" as="geometry"/>
                </mxCell>
                <mxCell id="3" value="23" style="ellipse;whiteSpace=wrap;html=1;aspect=fixed;strokeColor=#006EAF;strokeWidth=2;fillColor=#1ba1e2;fontColor=#ffffff;" parent="1" vertex="1">
                    <mxGeometry x="320" y="100" width="40" height="40" as="geometry"/>
                </mxCell>
                <mxCell id="4" value="4&lt;span style=&quot;color: rgba(0 , 0 , 0 , 0) ; font-family: monospace ; font-size: 0px&quot;&gt;%3CmxGraphModel%3E%3Croot%3E%3CmxCell%20id%3D%220%22%2F%3E%3CmxCell%20id%3D%221%22%20parent%3D%220%22%2F%3E%3CmxCell%20id%3D%222%22%20value%3D%2223%22%20style%3D%22ellipse%3BwhiteSpace%3Dwrap%3Bhtml%3D1%3Baspect%3Dfixed%3BstrokeColor%3D%23006EAF%3BstrokeWidth%3D2%3BfillColor%3D%231ba1e2%3BfontColor%3D%23ffffff%3B%22%20vertex%3D%221%22%20parent%3D%221%22%3E%3CmxGeometry%20x%3D%22320%22%20y%3D%22120%22%20width%3D%2240%22%20height%3D%2240%22%20as%3D%22geometry%22%2F%3E%3C%2FmxCell%3E%3C%2Froot%3E%3C%2FmxGraphModel%3E&lt;/span&gt;" style="ellipse;whiteSpace=wrap;html=1;aspect=fixed;strokeColor=#006EAF;strokeWidth=2;fillColor=#1ba1e2;fontColor=#ffffff;" parent="1" vertex="1">
                    <mxGeometry x="200" y="180" width="40" height="40" as="geometry"/>
                </mxCell>
                <mxCell id="5" value="30" style="ellipse;whiteSpace=wrap;html=1;aspect=fixed;strokeColor=#006EAF;strokeWidth=2;fillColor=#1ba1e2;fontColor=#ffffff;" parent="1" vertex="1">
                    <mxGeometry x="440" y="180" width="40" height="40" as="geometry"/>
                </mxCell>
                <mxCell id="6" value="1" style="ellipse;whiteSpace=wrap;html=1;aspect=fixed;strokeColor=#006EAF;strokeWidth=2;fillColor=#1ba1e2;fontColor=#ffffff;" parent="1" vertex="1">
                    <mxGeometry x="140" y="240" width="40" height="40" as="geometry"/>
                </mxCell>
                <mxCell id="7" value="11" style="ellipse;whiteSpace=wrap;html=1;aspect=fixed;strokeColor=#006EAF;strokeWidth=2;fillColor=#1ba1e2;fontColor=#ffffff;" parent="1" vertex="1">
                    <mxGeometry x="260" y="240" width="40" height="40" as="geometry"/>
                </mxCell>
                <mxCell id="8" value="24" style="ellipse;whiteSpace=wrap;html=1;aspect=fixed;strokeColor=#006EAF;strokeWidth=2;fillColor=#1ba1e2;fontColor=#ffffff;" parent="1" vertex="1">
                    <mxGeometry x="380" y="240" width="40" height="40" as="geometry"/>
                </mxCell>
                <mxCell id="9" value="34" style="ellipse;whiteSpace=wrap;html=1;aspect=fixed;strokeColor=#006EAF;strokeWidth=2;fillColor=#1ba1e2;fontColor=#ffffff;" parent="1" vertex="1">
                    <mxGeometry x="500" y="240" width="40" height="40" as="geometry"/>
                </mxCell>
                <mxCell id="10" value="7" style="ellipse;whiteSpace=wrap;html=1;aspect=fixed;strokeColor=#006EAF;strokeWidth=2;fillColor=#1ba1e2;fontColor=#ffffff;" parent="1" vertex="1">
                    <mxGeometry x="210" y="300" width="40" height="40" as="geometry"/>
                </mxCell>
                <mxCell id="11" value="20" style="ellipse;whiteSpace=wrap;html=1;aspect=fixed;strokeColor=#006EAF;strokeWidth=2;fillColor=#1ba1e2;fontColor=#ffffff;" parent="1" vertex="1">
                    <mxGeometry x="310" y="300" width="40" height="40" as="geometry"/>
                </mxCell>
                <mxCell id="12" value="" style="endArrow=none;html=1;strokeColor=#000000;strokeWidth=2;entryX=0;entryY=1;entryDx=0;entryDy=0;exitX=1;exitY=0;exitDx=0;exitDy=0;" parent="1" source="4" target="3" edge="1">
                    <mxGeometry width="50" height="50" relative="1" as="geometry">
                        <mxPoint x="400" y="510" as="sourcePoint"/>
                        <mxPoint x="450" y="460" as="targetPoint"/>
                    </mxGeometry>
                </mxCell>
                <mxCell id="13" value="" style="endArrow=none;html=1;strokeColor=#000000;strokeWidth=2;entryX=1;entryY=1;entryDx=0;entryDy=0;exitX=0;exitY=0;exitDx=0;exitDy=0;" parent="1" source="5" target="3" edge="1">
                    <mxGeometry width="50" height="50" relative="1" as="geometry">
                        <mxPoint x="244.14213562373106" y="195.85786437626894" as="sourcePoint"/>
                        <mxPoint x="335.85786437626894" y="144.14213562373106" as="targetPoint"/>
                    </mxGeometry>
                </mxCell>
                <mxCell id="14" value="" style="endArrow=none;html=1;strokeColor=#000000;strokeWidth=2;exitX=0;exitY=1;exitDx=0;exitDy=0;entryX=1;entryY=0;entryDx=0;entryDy=0;" parent="1" source="4" target="6" edge="1">
                    <mxGeometry width="50" height="50" relative="1" as="geometry">
                        <mxPoint x="254.14213562373106" y="205.85786437626894" as="sourcePoint"/>
                        <mxPoint x="130" y="220" as="targetPoint"/>
                    </mxGeometry>
                </mxCell>
                <mxCell id="15" value="" style="endArrow=none;html=1;strokeColor=#000000;strokeWidth=2;entryX=1;entryY=1;entryDx=0;entryDy=0;exitX=0;exitY=0;exitDx=0;exitDy=0;" parent="1" source="7" target="4" edge="1">
                    <mxGeometry width="50" height="50" relative="1" as="geometry">
                        <mxPoint x="264.14213562373106" y="215.85786437626894" as="sourcePoint"/>
                        <mxPoint x="355.85786437626894" y="164.14213562373106" as="targetPoint"/>
                    </mxGeometry>
                </mxCell>
                <mxCell id="16" value="" style="endArrow=none;html=1;strokeColor=#000000;strokeWidth=2;entryX=0;entryY=1;entryDx=0;entryDy=0;exitX=1;exitY=0;exitDx=0;exitDy=0;" parent="1" source="8" target="5" edge="1">
                    <mxGeometry width="50" height="50" relative="1" as="geometry">
                        <mxPoint x="274.14213562373106" y="225.85786437626894" as="sourcePoint"/>
                        <mxPoint x="365.85786437626894" y="174.14213562373106" as="targetPoint"/>
                    </mxGeometry>
                </mxCell>
                <mxCell id="17" value="" style="endArrow=none;html=1;strokeColor=#000000;strokeWidth=2;entryX=1;entryY=1;entryDx=0;entryDy=0;exitX=0;exitY=0;exitDx=0;exitDy=0;" parent="1" source="9" target="5" edge="1">
                    <mxGeometry width="50" height="50" relative="1" as="geometry">
                        <mxPoint x="284.14213562373106" y="235.85786437626894" as="sourcePoint"/>
                        <mxPoint x="375.85786437626894" y="184.14213562373106" as="targetPoint"/>
                    </mxGeometry>
                </mxCell>
                <mxCell id="18" value="" style="endArrow=none;html=1;strokeColor=#000000;strokeWidth=2;entryX=1;entryY=1;entryDx=0;entryDy=0;exitX=0;exitY=0;exitDx=0;exitDy=0;" parent="1" source="11" target="7" edge="1">
                    <mxGeometry width="50" height="50" relative="1" as="geometry">
                        <mxPoint x="294.14213562373106" y="245.85786437626894" as="sourcePoint"/>
                        <mxPoint x="385.85786437626894" y="194.14213562373106" as="targetPoint"/>
                    </mxGeometry>
                </mxCell>
                <mxCell id="19" value="" style="endArrow=none;html=1;strokeColor=#000000;strokeWidth=2;entryX=1;entryY=0;entryDx=0;entryDy=0;exitX=0;exitY=1;exitDx=0;exitDy=0;" parent="1" source="7" target="10" edge="1">
                    <mxGeometry width="50" height="50" relative="1" as="geometry">
                        <mxPoint x="304.14213562373106" y="255.85786437626894" as="sourcePoint"/>
                        <mxPoint x="395.85786437626894" y="204.14213562373106" as="targetPoint"/>
                    </mxGeometry>
                </mxCell>
                <mxCell id="23" value="&lt;font style=&quot;font-size: 16px&quot; color=&quot;#000000&quot;&gt;Search Key: 20&lt;/font&gt;" style="text;html=1;strokeColor=none;fillColor=none;align=center;verticalAlign=middle;whiteSpace=wrap;rounded=0;" parent="1" vertex="1">
                    <mxGeometry x="140" y="50" width="120" height="20" as="geometry"/>
                </mxCell>
            </root>
        </mxGraphModel>
    </diagram>
    <diagram name="02" id="TyqY_QUfuox5X--qDcBJ">
        &#xa;        
        <mxGraphModel dx="571" dy="623" grid="1" gridSize="10" guides="1" tooltips="1" connect="1" arrows="1" fold="1" page="1" pageScale="1" pageWidth="827" pageHeight="1169" math="0" shadow="0">
            &#xa;            
            <root>
                &#xa;                
                <mxCell id="yJlyAvlwLjmYcm31kpEb-0"/>
                &#xa;                
                <mxCell id="yJlyAvlwLjmYcm31kpEb-1" parent="yJlyAvlwLjmYcm31kpEb-0"/>
                &#xa;                
                <mxCell id="yJlyAvlwLjmYcm31kpEb-2" value="" style="rounded=0;whiteSpace=wrap;html=1;fillColor=#FFFFFF;strokeColor=none;" vertex="1" parent="yJlyAvlwLjmYcm31kpEb-1">
                    &#xa;                    
                    <mxGeometry x="100" y="20" width="480" height="360" as="geometry"/>
                    &#xa;                
                </mxCell>
                &#xa;                
                <mxCell id="yJlyAvlwLjmYcm31kpEb-3" value="23" style="ellipse;whiteSpace=wrap;html=1;aspect=fixed;strokeColor=#FF9933;strokeWidth=2;fillColor=#1ba1e2;fontColor=#ffffff;" vertex="1" parent="yJlyAvlwLjmYcm31kpEb-1">
                    &#xa;                    
                    <mxGeometry x="320" y="100" width="40" height="40" as="geometry"/>
                    &#xa;                
                </mxCell>
                &#xa;                
                <mxCell id="yJlyAvlwLjmYcm31kpEb-4" value="4&lt;span style=&quot;color: rgba(0 , 0 , 0 , 0) ; font-family: monospace ; font-size: 0px&quot;&gt;%3CmxGraphModel%3E%3Croot%3E%3CmxCell%20id%3D%220%22%2F%3E%3CmxCell%20id%3D%221%22%20parent%3D%220%22%2F%3E%3CmxCell%20id%3D%222%22%20value%3D%2223%22%20style%3D%22ellipse%3BwhiteSpace%3Dwrap%3Bhtml%3D1%3Baspect%3Dfixed%3BstrokeColor%3D%23006EAF%3BstrokeWidth%3D2%3BfillColor%3D%231ba1e2%3BfontColor%3D%23ffffff%3B%22%20vertex%3D%221%22%20parent%3D%221%22%3E%3CmxGeometry%20x%3D%22320%22%20y%3D%22120%22%20width%3D%2240%22%20height%3D%2240%22%20as%3D%22geometry%22%2F%3E%3C%2FmxCell%3E%3C%2Froot%3E%3C%2FmxGraphModel%3E&lt;/span&gt;" style="ellipse;whiteSpace=wrap;html=1;aspect=fixed;strokeColor=#006EAF;strokeWidth=2;fillColor=#1ba1e2;fontColor=#ffffff;" vertex="1" parent="yJlyAvlwLjmYcm31kpEb-1">
                    &#xa;                    
                    <mxGeometry x="200" y="180" width="40" height="40" as="geometry"/>
                    &#xa;                
                </mxCell>
                &#xa;                
                <mxCell id="yJlyAvlwLjmYcm31kpEb-5" value="30" style="ellipse;whiteSpace=wrap;html=1;aspect=fixed;strokeColor=#006EAF;strokeWidth=2;fillColor=#1ba1e2;fontColor=#ffffff;" vertex="1" parent="yJlyAvlwLjmYcm31kpEb-1">
                    &#xa;                    
                    <mxGeometry x="440" y="180" width="40" height="40" as="geometry"/>
                    &#xa;                
                </mxCell>
                &#xa;                
                <mxCell id="yJlyAvlwLjmYcm31kpEb-6" value="1" style="ellipse;whiteSpace=wrap;html=1;aspect=fixed;strokeColor=#006EAF;strokeWidth=2;fillColor=#1ba1e2;fontColor=#ffffff;" vertex="1" parent="yJlyAvlwLjmYcm31kpEb-1">
                    &#xa;                    
                    <mxGeometry x="140" y="240" width="40" height="40" as="geometry"/>
                    &#xa;                
                </mxCell>
                &#xa;                
                <mxCell id="yJlyAvlwLjmYcm31kpEb-7" value="11" style="ellipse;whiteSpace=wrap;html=1;aspect=fixed;strokeColor=#006EAF;strokeWidth=2;fillColor=#1ba1e2;fontColor=#ffffff;" vertex="1" parent="yJlyAvlwLjmYcm31kpEb-1">
                    &#xa;                    
                    <mxGeometry x="260" y="240" width="40" height="40" as="geometry"/>
                    &#xa;                
                </mxCell>
                &#xa;                
                <mxCell id="yJlyAvlwLjmYcm31kpEb-8" value="24" style="ellipse;whiteSpace=wrap;html=1;aspect=fixed;strokeColor=#006EAF;strokeWidth=2;fillColor=#1ba1e2;fontColor=#ffffff;" vertex="1" parent="yJlyAvlwLjmYcm31kpEb-1">
                    &#xa;                    
                    <mxGeometry x="380" y="240" width="40" height="40" as="geometry"/>
                    &#xa;                
                </mxCell>
                &#xa;                
                <mxCell id="yJlyAvlwLjmYcm31kpEb-9" value="34" style="ellipse;whiteSpace=wrap;html=1;aspect=fixed;strokeColor=#006EAF;strokeWidth=2;fillColor=#1ba1e2;fontColor=#ffffff;" vertex="1" parent="yJlyAvlwLjmYcm31kpEb-1">
                    &#xa;                    
                    <mxGeometry x="500" y="240" width="40" height="40" as="geometry"/>
                    &#xa;                
                </mxCell>
                &#xa;                
                <mxCell id="yJlyAvlwLjmYcm31kpEb-10" value="7" style="ellipse;whiteSpace=wrap;html=1;aspect=fixed;strokeColor=#006EAF;strokeWidth=2;fillColor=#1ba1e2;fontColor=#ffffff;" vertex="1" parent="yJlyAvlwLjmYcm31kpEb-1">
                    &#xa;                    
                    <mxGeometry x="210" y="300" width="40" height="40" as="geometry"/>
                    &#xa;                
                </mxCell>
                &#xa;                
                <mxCell id="yJlyAvlwLjmYcm31kpEb-11" value="20" style="ellipse;whiteSpace=wrap;html=1;aspect=fixed;strokeColor=#006EAF;strokeWidth=2;fillColor=#1ba1e2;fontColor=#ffffff;" vertex="1" parent="yJlyAvlwLjmYcm31kpEb-1">
                    &#xa;                    
                    <mxGeometry x="310" y="300" width="40" height="40" as="geometry"/>
                    &#xa;                
                </mxCell>
                &#xa;                
                <mxCell id="yJlyAvlwLjmYcm31kpEb-12" value="" style="endArrow=none;html=1;strokeColor=#000000;strokeWidth=2;entryX=0;entryY=1;entryDx=0;entryDy=0;exitX=1;exitY=0;exitDx=0;exitDy=0;" edge="1" parent="yJlyAvlwLjmYcm31kpEb-1" source="yJlyAvlwLjmYcm31kpEb-4" target="yJlyAvlwLjmYcm31kpEb-3">
                    &#xa;                    
                    <mxGeometry width="50" height="50" relative="1" as="geometry">
                        &#xa;                        
                        <mxPoint x="400" y="510" as="sourcePoint"/>
                        &#xa;                        
                        <mxPoint x="450" y="460" as="targetPoint"/>
                        &#xa;                    
                    </mxGeometry>
                    &#xa;                
                </mxCell>
                &#xa;                
                <mxCell id="yJlyAvlwLjmYcm31kpEb-13" value="" style="endArrow=none;html=1;strokeColor=#000000;strokeWidth=2;entryX=1;entryY=1;entryDx=0;entryDy=0;exitX=0;exitY=0;exitDx=0;exitDy=0;" edge="1" parent="yJlyAvlwLjmYcm31kpEb-1" source="yJlyAvlwLjmYcm31kpEb-5" target="yJlyAvlwLjmYcm31kpEb-3">
                    &#xa;                    
                    <mxGeometry width="50" height="50" relative="1" as="geometry">
                        &#xa;                        
                        <mxPoint x="244.14213562373106" y="195.85786437626894" as="sourcePoint"/>
                        &#xa;                        
                        <mxPoint x="335.85786437626894" y="144.14213562373106" as="targetPoint"/>
                        &#xa;                    
                    </mxGeometry>
                    &#xa;                
                </mxCell>
                &#xa;                
                <mxCell id="yJlyAvlwLjmYcm31kpEb-14" value="" style="endArrow=none;html=1;strokeColor=#000000;strokeWidth=2;exitX=0;exitY=1;exitDx=0;exitDy=0;entryX=1;entryY=0;entryDx=0;entryDy=0;" edge="1" parent="yJlyAvlwLjmYcm31kpEb-1" source="yJlyAvlwLjmYcm31kpEb-4" target="yJlyAvlwLjmYcm31kpEb-6">
                    &#xa;                    
                    <mxGeometry width="50" height="50" relative="1" as="geometry">
                        &#xa;                        
                        <mxPoint x="254.14213562373106" y="205.85786437626894" as="sourcePoint"/>
                        &#xa;                        
                        <mxPoint x="130" y="220" as="targetPoint"/>
                        &#xa;                    
                    </mxGeometry>
                    &#xa;                
                </mxCell>
                &#xa;                
                <mxCell id="yJlyAvlwLjmYcm31kpEb-15" value="" style="endArrow=none;html=1;strokeColor=#000000;strokeWidth=2;entryX=1;entryY=1;entryDx=0;entryDy=0;exitX=0;exitY=0;exitDx=0;exitDy=0;" edge="1" parent="yJlyAvlwLjmYcm31kpEb-1" source="yJlyAvlwLjmYcm31kpEb-7" target="yJlyAvlwLjmYcm31kpEb-4">
                    &#xa;                    
                    <mxGeometry width="50" height="50" relative="1" as="geometry">
                        &#xa;                        
                        <mxPoint x="264.14213562373106" y="215.85786437626894" as="sourcePoint"/>
                        &#xa;                        
                        <mxPoint x="355.85786437626894" y="164.14213562373106" as="targetPoint"/>
                        &#xa;                    
                    </mxGeometry>
                    &#xa;                
                </mxCell>
                &#xa;                
                <mxCell id="yJlyAvlwLjmYcm31kpEb-16" value="" style="endArrow=none;html=1;strokeColor=#000000;strokeWidth=2;entryX=0;entryY=1;entryDx=0;entryDy=0;exitX=1;exitY=0;exitDx=0;exitDy=0;" edge="1" parent="yJlyAvlwLjmYcm31kpEb-1" source="yJlyAvlwLjmYcm31kpEb-8" target="yJlyAvlwLjmYcm31kpEb-5">
                    &#xa;                    
                    <mxGeometry width="50" height="50" relative="1" as="geometry">
                        &#xa;                        
                        <mxPoint x="274.14213562373106" y="225.85786437626894" as="sourcePoint"/>
                        &#xa;                        
                        <mxPoint x="365.85786437626894" y="174.14213562373106" as="targetPoint"/>
                        &#xa;                    
                    </mxGeometry>
                    &#xa;                
                </mxCell>
                &#xa;                
                <mxCell id="yJlyAvlwLjmYcm31kpEb-17" value="" style="endArrow=none;html=1;strokeColor=#000000;strokeWidth=2;entryX=1;entryY=1;entryDx=0;entryDy=0;exitX=0;exitY=0;exitDx=0;exitDy=0;" edge="1" parent="yJlyAvlwLjmYcm31kpEb-1" source="yJlyAvlwLjmYcm31kpEb-9" target="yJlyAvlwLjmYcm31kpEb-5">
                    &#xa;                    
                    <mxGeometry width="50" height="50" relative="1" as="geometry">
                        &#xa;                        
                        <mxPoint x="284.14213562373106" y="235.85786437626894" as="sourcePoint"/>
                        &#xa;                        
                        <mxPoint x="375.85786437626894" y="184.14213562373106" as="targetPoint"/>
                        &#xa;                    
                    </mxGeometry>
                    &#xa;                
                </mxCell>
                &#xa;                
                <mxCell id="yJlyAvlwLjmYcm31kpEb-18" value="" style="endArrow=none;html=1;strokeColor=#000000;strokeWidth=2;entryX=1;entryY=1;entryDx=0;entryDy=0;exitX=0;exitY=0;exitDx=0;exitDy=0;" edge="1" parent="yJlyAvlwLjmYcm31kpEb-1" source="yJlyAvlwLjmYcm31kpEb-11" target="yJlyAvlwLjmYcm31kpEb-7">
                    &#xa;                    
                    <mxGeometry width="50" height="50" relative="1" as="geometry">
                        &#xa;                        
                        <mxPoint x="294.14213562373106" y="245.85786437626894" as="sourcePoint"/>
                        &#xa;                        
                        <mxPoint x="385.85786437626894" y="194.14213562373106" as="targetPoint"/>
                        &#xa;                    
                    </mxGeometry>
                    &#xa;                
                </mxCell>
                &#xa;                
                <mxCell id="yJlyAvlwLjmYcm31kpEb-19" value="" style="endArrow=none;html=1;strokeColor=#000000;strokeWidth=2;entryX=1;entryY=0;entryDx=0;entryDy=0;exitX=0;exitY=1;exitDx=0;exitDy=0;" edge="1" parent="yJlyAvlwLjmYcm31kpEb-1" source="yJlyAvlwLjmYcm31kpEb-7" target="yJlyAvlwLjmYcm31kpEb-10">
                    &#xa;                    
                    <mxGeometry width="50" height="50" relative="1" as="geometry">
                        &#xa;                        
                        <mxPoint x="304.14213562373106" y="255.85786437626894" as="sourcePoint"/>
                        &#xa;                        
                        <mxPoint x="395.85786437626894" y="204.14213562373106" as="targetPoint"/>
                        &#xa;                    
                    </mxGeometry>
                    &#xa;                
                </mxCell>
                &#xa;                
                <mxCell id="yJlyAvlwLjmYcm31kpEb-20" value="&lt;font style=&quot;font-size: 16px&quot; color=&quot;#000000&quot;&gt;Search Key: 20&lt;/font&gt;" style="text;html=1;strokeColor=none;fillColor=none;align=center;verticalAlign=middle;whiteSpace=wrap;rounded=0;" vertex="1" parent="yJlyAvlwLjmYcm31kpEb-1">
                    &#xa;                    
                    <mxGeometry x="140" y="50" width="120" height="20" as="geometry"/>
                    &#xa;                
                </mxCell>
                &#xa;                
                <mxCell id="yJlyAvlwLjmYcm31kpEb-21" value="" style="html=1;shadow=0;dashed=0;align=center;verticalAlign=middle;shape=mxgraph.arrows2.arrow;dy=0.52;dx=24.67;notch=0;strokeColor=#FF9933;fillColor=#FF9933;" vertex="1" parent="yJlyAvlwLjmYcm31kpEb-1">
                    &#xa;                    
                    <mxGeometry x="270" y="110" width="40" height="20" as="geometry"/>
                    &#xa;                
                </mxCell>
                &#xa;            
            </root>
            &#xa;        
        </mxGraphModel>
        &#xa;    
    </diagram>
    <diagram name="03" id="FLO3kO1rliN66ES55ZwG">
        &#xa;        
        <mxGraphModel dx="571" dy="623" grid="1" gridSize="10" guides="1" tooltips="1" connect="1" arrows="1" fold="1" page="1" pageScale="1" pageWidth="827" pageHeight="1169" math="0" shadow="0">
            &#xa;            
            <root>
                &#xa;                
                <mxCell id="lk4CORNwmiTK9j70exBJ-0"/>
                &#xa;                
                <mxCell id="lk4CORNwmiTK9j70exBJ-1" parent="lk4CORNwmiTK9j70exBJ-0"/>
                &#xa;                
                <mxCell id="lk4CORNwmiTK9j70exBJ-2" value="" style="rounded=0;whiteSpace=wrap;html=1;fillColor=#FFFFFF;strokeColor=none;" vertex="1" parent="lk4CORNwmiTK9j70exBJ-1">
                    &#xa;                    
                    <mxGeometry x="100" y="20" width="480" height="360" as="geometry"/>
                    &#xa;                
                </mxCell>
                &#xa;                
                <mxCell id="lk4CORNwmiTK9j70exBJ-3" value="23" style="ellipse;whiteSpace=wrap;html=1;aspect=fixed;strokeColor=#006EAF;strokeWidth=2;fillColor=#1ba1e2;fontColor=#ffffff;" vertex="1" parent="lk4CORNwmiTK9j70exBJ-1">
                    &#xa;                    
                    <mxGeometry x="320" y="100" width="40" height="40" as="geometry"/>
                    &#xa;                
                </mxCell>
                &#xa;                
                <mxCell id="lk4CORNwmiTK9j70exBJ-4" value="4&lt;span style=&quot;color: rgba(0 , 0 , 0 , 0) ; font-family: monospace ; font-size: 0px&quot;&gt;%3CmxGraphModel%3E%3Croot%3E%3CmxCell%20id%3D%220%22%2F%3E%3CmxCell%20id%3D%221%22%20parent%3D%220%22%2F%3E%3CmxCell%20id%3D%222%22%20value%3D%2223%22%20style%3D%22ellipse%3BwhiteSpace%3Dwrap%3Bhtml%3D1%3Baspect%3Dfixed%3BstrokeColor%3D%23006EAF%3BstrokeWidth%3D2%3BfillColor%3D%231ba1e2%3BfontColor%3D%23ffffff%3B%22%20vertex%3D%221%22%20parent%3D%221%22%3E%3CmxGeometry%20x%3D%22320%22%20y%3D%22120%22%20width%3D%2240%22%20height%3D%2240%22%20as%3D%22geometry%22%2F%3E%3C%2FmxCell%3E%3C%2Froot%3E%3C%2FmxGraphModel%3E&lt;/span&gt;" style="ellipse;whiteSpace=wrap;html=1;aspect=fixed;strokeColor=#FF9933;strokeWidth=2;fillColor=#1ba1e2;fontColor=#ffffff;" vertex="1" parent="lk4CORNwmiTK9j70exBJ-1">
                    &#xa;                    
                    <mxGeometry x="200" y="180" width="40" height="40" as="geometry"/>
                    &#xa;                
                </mxCell>
                &#xa;                
                <mxCell id="lk4CORNwmiTK9j70exBJ-5" value="30" style="ellipse;whiteSpace=wrap;html=1;aspect=fixed;strokeColor=#006EAF;strokeWidth=2;fillColor=#1ba1e2;fontColor=#ffffff;" vertex="1" parent="lk4CORNwmiTK9j70exBJ-1">
                    &#xa;                    
                    <mxGeometry x="440" y="180" width="40" height="40" as="geometry"/>
                    &#xa;                
                </mxCell>
                &#xa;                
                <mxCell id="lk4CORNwmiTK9j70exBJ-6" value="1" style="ellipse;whiteSpace=wrap;html=1;aspect=fixed;strokeColor=#006EAF;strokeWidth=2;fillColor=#1ba1e2;fontColor=#ffffff;" vertex="1" parent="lk4CORNwmiTK9j70exBJ-1">
                    &#xa;                    
                    <mxGeometry x="140" y="240" width="40" height="40" as="geometry"/>
                    &#xa;                
                </mxCell>
                &#xa;                
                <mxCell id="lk4CORNwmiTK9j70exBJ-7" value="11" style="ellipse;whiteSpace=wrap;html=1;aspect=fixed;strokeColor=#006EAF;strokeWidth=2;fillColor=#1ba1e2;fontColor=#ffffff;" vertex="1" parent="lk4CORNwmiTK9j70exBJ-1">
                    &#xa;                    
                    <mxGeometry x="260" y="240" width="40" height="40" as="geometry"/>
                    &#xa;                
                </mxCell>
                &#xa;                
                <mxCell id="lk4CORNwmiTK9j70exBJ-8" value="24" style="ellipse;whiteSpace=wrap;html=1;aspect=fixed;strokeColor=#006EAF;strokeWidth=2;fillColor=#1ba1e2;fontColor=#ffffff;" vertex="1" parent="lk4CORNwmiTK9j70exBJ-1">
                    &#xa;                    
                    <mxGeometry x="380" y="240" width="40" height="40" as="geometry"/>
                    &#xa;                
                </mxCell>
                &#xa;                
                <mxCell id="lk4CORNwmiTK9j70exBJ-9" value="34" style="ellipse;whiteSpace=wrap;html=1;aspect=fixed;strokeColor=#006EAF;strokeWidth=2;fillColor=#1ba1e2;fontColor=#ffffff;" vertex="1" parent="lk4CORNwmiTK9j70exBJ-1">
                    &#xa;                    
                    <mxGeometry x="500" y="240" width="40" height="40" as="geometry"/>
                    &#xa;                
                </mxCell>
                &#xa;                
                <mxCell id="lk4CORNwmiTK9j70exBJ-10" value="7" style="ellipse;whiteSpace=wrap;html=1;aspect=fixed;strokeColor=#006EAF;strokeWidth=2;fillColor=#1ba1e2;fontColor=#ffffff;" vertex="1" parent="lk4CORNwmiTK9j70exBJ-1">
                    &#xa;                    
                    <mxGeometry x="210" y="300" width="40" height="40" as="geometry"/>
                    &#xa;                
                </mxCell>
                &#xa;                
                <mxCell id="lk4CORNwmiTK9j70exBJ-11" value="20" style="ellipse;whiteSpace=wrap;html=1;aspect=fixed;strokeColor=#006EAF;strokeWidth=2;fillColor=#1ba1e2;fontColor=#ffffff;" vertex="1" parent="lk4CORNwmiTK9j70exBJ-1">
                    &#xa;                    
                    <mxGeometry x="310" y="300" width="40" height="40" as="geometry"/>
                    &#xa;                
                </mxCell>
                &#xa;                
                <mxCell id="lk4CORNwmiTK9j70exBJ-12" value="" style="endArrow=none;html=1;strokeColor=#000000;strokeWidth=2;entryX=0;entryY=1;entryDx=0;entryDy=0;exitX=1;exitY=0;exitDx=0;exitDy=0;" edge="1" parent="lk4CORNwmiTK9j70exBJ-1" source="lk4CORNwmiTK9j70exBJ-4" target="lk4CORNwmiTK9j70exBJ-3">
                    &#xa;                    
                    <mxGeometry width="50" height="50" relative="1" as="geometry">
                        &#xa;                        
                        <mxPoint x="400" y="510" as="sourcePoint"/>
                        &#xa;                        
                        <mxPoint x="450" y="460" as="targetPoint"/>
                        &#xa;                    
                    </mxGeometry>
                    &#xa;                
                </mxCell>
                &#xa;                
                <mxCell id="lk4CORNwmiTK9j70exBJ-13" value="" style="endArrow=none;html=1;strokeColor=#000000;strokeWidth=2;entryX=1;entryY=1;entryDx=0;entryDy=0;exitX=0;exitY=0;exitDx=0;exitDy=0;" edge="1" parent="lk4CORNwmiTK9j70exBJ-1" source="lk4CORNwmiTK9j70exBJ-5" target="lk4CORNwmiTK9j70exBJ-3">
                    &#xa;                    
                    <mxGeometry width="50" height="50" relative="1" as="geometry">
                        &#xa;                        
                        <mxPoint x="244.14213562373106" y="195.85786437626894" as="sourcePoint"/>
                        &#xa;                        
                        <mxPoint x="335.85786437626894" y="144.14213562373106" as="targetPoint"/>
                        &#xa;                    
                    </mxGeometry>
                    &#xa;                
                </mxCell>
                &#xa;                
                <mxCell id="lk4CORNwmiTK9j70exBJ-14" value="" style="endArrow=none;html=1;strokeColor=#000000;strokeWidth=2;exitX=0;exitY=1;exitDx=0;exitDy=0;entryX=1;entryY=0;entryDx=0;entryDy=0;" edge="1" parent="lk4CORNwmiTK9j70exBJ-1" source="lk4CORNwmiTK9j70exBJ-4" target="lk4CORNwmiTK9j70exBJ-6">
                    &#xa;                    
                    <mxGeometry width="50" height="50" relative="1" as="geometry">
                        &#xa;                        
                        <mxPoint x="254.14213562373106" y="205.85786437626894" as="sourcePoint"/>
                        &#xa;                        
                        <mxPoint x="130" y="220" as="targetPoint"/>
                        &#xa;                    
                    </mxGeometry>
                    &#xa;                
                </mxCell>
                &#xa;                
                <mxCell id="lk4CORNwmiTK9j70exBJ-15" value="" style="endArrow=none;html=1;strokeColor=#000000;strokeWidth=2;entryX=1;entryY=1;entryDx=0;entryDy=0;exitX=0;exitY=0;exitDx=0;exitDy=0;" edge="1" parent="lk4CORNwmiTK9j70exBJ-1" source="lk4CORNwmiTK9j70exBJ-7" target="lk4CORNwmiTK9j70exBJ-4">
                    &#xa;                    
                    <mxGeometry width="50" height="50" relative="1" as="geometry">
                        &#xa;                        
                        <mxPoint x="264.14213562373106" y="215.85786437626894" as="sourcePoint"/>
                        &#xa;                        
                        <mxPoint x="355.85786437626894" y="164.14213562373106" as="targetPoint"/>
                        &#xa;                    
                    </mxGeometry>
                    &#xa;                
                </mxCell>
                &#xa;                
                <mxCell id="lk4CORNwmiTK9j70exBJ-16" value="" style="endArrow=none;html=1;strokeColor=#000000;strokeWidth=2;entryX=0;entryY=1;entryDx=0;entryDy=0;exitX=1;exitY=0;exitDx=0;exitDy=0;" edge="1" parent="lk4CORNwmiTK9j70exBJ-1" source="lk4CORNwmiTK9j70exBJ-8" target="lk4CORNwmiTK9j70exBJ-5">
                    &#xa;                    
                    <mxGeometry width="50" height="50" relative="1" as="geometry">
                        &#xa;                        
                        <mxPoint x="274.14213562373106" y="225.85786437626894" as="sourcePoint"/>
                        &#xa;                        
                        <mxPoint x="365.85786437626894" y="174.14213562373106" as="targetPoint"/>
                        &#xa;                    
                    </mxGeometry>
                    &#xa;                
                </mxCell>
                &#xa;                
                <mxCell id="lk4CORNwmiTK9j70exBJ-17" value="" style="endArrow=none;html=1;strokeColor=#000000;strokeWidth=2;entryX=1;entryY=1;entryDx=0;entryDy=0;exitX=0;exitY=0;exitDx=0;exitDy=0;" edge="1" parent="lk4CORNwmiTK9j70exBJ-1" source="lk4CORNwmiTK9j70exBJ-9" target="lk4CORNwmiTK9j70exBJ-5">
                    &#xa;                    
                    <mxGeometry width="50" height="50" relative="1" as="geometry">
                        &#xa;                        
                        <mxPoint x="284.14213562373106" y="235.85786437626894" as="sourcePoint"/>
                        &#xa;                        
                        <mxPoint x="375.85786437626894" y="184.14213562373106" as="targetPoint"/>
                        &#xa;                    
                    </mxGeometry>
                    &#xa;                
                </mxCell>
                &#xa;                
                <mxCell id="lk4CORNwmiTK9j70exBJ-18" value="" style="endArrow=none;html=1;strokeColor=#000000;strokeWidth=2;entryX=1;entryY=1;entryDx=0;entryDy=0;exitX=0;exitY=0;exitDx=0;exitDy=0;" edge="1" parent="lk4CORNwmiTK9j70exBJ-1" source="lk4CORNwmiTK9j70exBJ-11" target="lk4CORNwmiTK9j70exBJ-7">
                    &#xa;                    
                    <mxGeometry width="50" height="50" relative="1" as="geometry">
                        &#xa;                        
                        <mxPoint x="294.14213562373106" y="245.85786437626894" as="sourcePoint"/>
                        &#xa;                        
                        <mxPoint x="385.85786437626894" y="194.14213562373106" as="targetPoint"/>
                        &#xa;                    
                    </mxGeometry>
                    &#xa;                
                </mxCell>
                &#xa;                
                <mxCell id="lk4CORNwmiTK9j70exBJ-19" value="" style="endArrow=none;html=1;strokeColor=#000000;strokeWidth=2;entryX=1;entryY=0;entryDx=0;entryDy=0;exitX=0;exitY=1;exitDx=0;exitDy=0;" edge="1" parent="lk4CORNwmiTK9j70exBJ-1" source="lk4CORNwmiTK9j70exBJ-7" target="lk4CORNwmiTK9j70exBJ-10">
                    &#xa;                    
                    <mxGeometry width="50" height="50" relative="1" as="geometry">
                        &#xa;                        
                        <mxPoint x="304.14213562373106" y="255.85786437626894" as="sourcePoint"/>
                        &#xa;                        
                        <mxPoint x="395.85786437626894" y="204.14213562373106" as="targetPoint"/>
                        &#xa;                    
                    </mxGeometry>
                    &#xa;                
                </mxCell>
                &#xa;                
                <mxCell id="lk4CORNwmiTK9j70exBJ-20" value="&lt;font style=&quot;font-size: 16px&quot; color=&quot;#000000&quot;&gt;Search Key: 20&lt;/font&gt;" style="text;html=1;strokeColor=none;fillColor=none;align=center;verticalAlign=middle;whiteSpace=wrap;rounded=0;" vertex="1" parent="lk4CORNwmiTK9j70exBJ-1">
                    &#xa;                    
                    <mxGeometry x="140" y="50" width="120" height="20" as="geometry"/>
                    &#xa;                
                </mxCell>
                &#xa;                
                <mxCell id="lk4CORNwmiTK9j70exBJ-21" value="" style="html=1;shadow=0;dashed=0;align=center;verticalAlign=middle;shape=mxgraph.arrows2.arrow;dy=0.52;dx=24.67;notch=0;strokeColor=#FF9933;fillColor=#FF9933;" vertex="1" parent="lk4CORNwmiTK9j70exBJ-1">
                    &#xa;                    
                    <mxGeometry x="150" y="190" width="40" height="20" as="geometry"/>
                    &#xa;                
                </mxCell>
                &#xa;            
            </root>
            &#xa;        
        </mxGraphModel>
        &#xa;    
    </diagram>
    <diagram name="04" id="n0aMl11D01FnOIaVxa2I">
        &#xa;        
        <mxGraphModel dx="571" dy="623" grid="1" gridSize="10" guides="1" tooltips="1" connect="1" arrows="1" fold="1" page="1" pageScale="1" pageWidth="827" pageHeight="1169" math="0" shadow="0">
            &#xa;            
            <root>
                &#xa;                
                <mxCell id="WNKB9fjOYrMiOc_igsey-0"/>
                &#xa;                
                <mxCell id="WNKB9fjOYrMiOc_igsey-1" parent="WNKB9fjOYrMiOc_igsey-0"/>
                &#xa;                
                <mxCell id="WNKB9fjOYrMiOc_igsey-2" value="" style="rounded=0;whiteSpace=wrap;html=1;fillColor=#FFFFFF;strokeColor=none;" vertex="1" parent="WNKB9fjOYrMiOc_igsey-1">
                    &#xa;                    
                    <mxGeometry x="100" y="20" width="480" height="360" as="geometry"/>
                    &#xa;                
                </mxCell>
                &#xa;                
                <mxCell id="WNKB9fjOYrMiOc_igsey-3" value="23" style="ellipse;whiteSpace=wrap;html=1;aspect=fixed;strokeColor=#006EAF;strokeWidth=2;fillColor=#1ba1e2;fontColor=#ffffff;" vertex="1" parent="WNKB9fjOYrMiOc_igsey-1">
                    &#xa;                    
                    <mxGeometry x="320" y="100" width="40" height="40" as="geometry"/>
                    &#xa;                
                </mxCell>
                &#xa;                
                <mxCell id="WNKB9fjOYrMiOc_igsey-4" value="4&lt;span style=&quot;color: rgba(0 , 0 , 0 , 0) ; font-family: monospace ; font-size: 0px&quot;&gt;%3CmxGraphModel%3E%3Croot%3E%3CmxCell%20id%3D%220%22%2F%3E%3CmxCell%20id%3D%221%22%20parent%3D%220%22%2F%3E%3CmxCell%20id%3D%222%22%20value%3D%2223%22%20style%3D%22ellipse%3BwhiteSpace%3Dwrap%3Bhtml%3D1%3Baspect%3Dfixed%3BstrokeColor%3D%23006EAF%3BstrokeWidth%3D2%3BfillColor%3D%231ba1e2%3BfontColor%3D%23ffffff%3B%22%20vertex%3D%221%22%20parent%3D%221%22%3E%3CmxGeometry%20x%3D%22320%22%20y%3D%22120%22%20width%3D%2240%22%20height%3D%2240%22%20as%3D%22geometry%22%2F%3E%3C%2FmxCell%3E%3C%2Froot%3E%3C%2FmxGraphModel%3E&lt;/span&gt;" style="ellipse;whiteSpace=wrap;html=1;aspect=fixed;strokeColor=#006EAF;strokeWidth=2;fillColor=#1ba1e2;fontColor=#ffffff;" vertex="1" parent="WNKB9fjOYrMiOc_igsey-1">
                    &#xa;                    
                    <mxGeometry x="200" y="180" width="40" height="40" as="geometry"/>
                    &#xa;                
                </mxCell>
                &#xa;                
                <mxCell id="WNKB9fjOYrMiOc_igsey-5" value="30" style="ellipse;whiteSpace=wrap;html=1;aspect=fixed;strokeColor=#006EAF;strokeWidth=2;fillColor=#1ba1e2;fontColor=#ffffff;" vertex="1" parent="WNKB9fjOYrMiOc_igsey-1">
                    &#xa;                    
                    <mxGeometry x="440" y="180" width="40" height="40" as="geometry"/>
                    &#xa;                
                </mxCell>
                &#xa;                
                <mxCell id="WNKB9fjOYrMiOc_igsey-6" value="1" style="ellipse;whiteSpace=wrap;html=1;aspect=fixed;strokeColor=#006EAF;strokeWidth=2;fillColor=#1ba1e2;fontColor=#ffffff;" vertex="1" parent="WNKB9fjOYrMiOc_igsey-1">
                    &#xa;                    
                    <mxGeometry x="140" y="240" width="40" height="40" as="geometry"/>
                    &#xa;                
                </mxCell>
                &#xa;                
                <mxCell id="WNKB9fjOYrMiOc_igsey-7" value="11" style="ellipse;whiteSpace=wrap;html=1;aspect=fixed;strokeColor=#FF9933;strokeWidth=2;fillColor=#1ba1e2;fontColor=#ffffff;" vertex="1" parent="WNKB9fjOYrMiOc_igsey-1">
                    &#xa;                    
                    <mxGeometry x="260" y="240" width="40" height="40" as="geometry"/>
                    &#xa;                
                </mxCell>
                &#xa;                
                <mxCell id="WNKB9fjOYrMiOc_igsey-8" value="24" style="ellipse;whiteSpace=wrap;html=1;aspect=fixed;strokeColor=#006EAF;strokeWidth=2;fillColor=#1ba1e2;fontColor=#ffffff;" vertex="1" parent="WNKB9fjOYrMiOc_igsey-1">
                    &#xa;                    
                    <mxGeometry x="380" y="240" width="40" height="40" as="geometry"/>
                    &#xa;                
                </mxCell>
                &#xa;                
                <mxCell id="WNKB9fjOYrMiOc_igsey-9" value="34" style="ellipse;whiteSpace=wrap;html=1;aspect=fixed;strokeColor=#006EAF;strokeWidth=2;fillColor=#1ba1e2;fontColor=#ffffff;" vertex="1" parent="WNKB9fjOYrMiOc_igsey-1">
                    &#xa;                    
                    <mxGeometry x="500" y="240" width="40" height="40" as="geometry"/>
                    &#xa;                
                </mxCell>
                &#xa;                
                <mxCell id="WNKB9fjOYrMiOc_igsey-10" value="7" style="ellipse;whiteSpace=wrap;html=1;aspect=fixed;strokeColor=#006EAF;strokeWidth=2;fillColor=#1ba1e2;fontColor=#ffffff;" vertex="1" parent="WNKB9fjOYrMiOc_igsey-1">
                    &#xa;                    
                    <mxGeometry x="210" y="300" width="40" height="40" as="geometry"/>
                    &#xa;                
                </mxCell>
                &#xa;                
                <mxCell id="WNKB9fjOYrMiOc_igsey-11" value="20" style="ellipse;whiteSpace=wrap;html=1;aspect=fixed;strokeColor=#006EAF;strokeWidth=2;fillColor=#1ba1e2;fontColor=#ffffff;" vertex="1" parent="WNKB9fjOYrMiOc_igsey-1">
                    &#xa;                    
                    <mxGeometry x="310" y="300" width="40" height="40" as="geometry"/>
                    &#xa;                
                </mxCell>
                &#xa;                
                <mxCell id="WNKB9fjOYrMiOc_igsey-12" value="" style="endArrow=none;html=1;strokeColor=#000000;strokeWidth=2;entryX=0;entryY=1;entryDx=0;entryDy=0;exitX=1;exitY=0;exitDx=0;exitDy=0;" edge="1" parent="WNKB9fjOYrMiOc_igsey-1" source="WNKB9fjOYrMiOc_igsey-4" target="WNKB9fjOYrMiOc_igsey-3">
                    &#xa;                    
                    <mxGeometry width="50" height="50" relative="1" as="geometry">
                        &#xa;                        
                        <mxPoint x="400" y="510" as="sourcePoint"/>
                        &#xa;                        
                        <mxPoint x="450" y="460" as="targetPoint"/>
                        &#xa;                    
                    </mxGeometry>
                    &#xa;                
                </mxCell>
                &#xa;                
                <mxCell id="WNKB9fjOYrMiOc_igsey-13" value="" style="endArrow=none;html=1;strokeColor=#000000;strokeWidth=2;entryX=1;entryY=1;entryDx=0;entryDy=0;exitX=0;exitY=0;exitDx=0;exitDy=0;" edge="1" parent="WNKB9fjOYrMiOc_igsey-1" source="WNKB9fjOYrMiOc_igsey-5" target="WNKB9fjOYrMiOc_igsey-3">
                    &#xa;                    
                    <mxGeometry width="50" height="50" relative="1" as="geometry">
                        &#xa;                        
                        <mxPoint x="244.14213562373106" y="195.85786437626894" as="sourcePoint"/>
                        &#xa;                        
                        <mxPoint x="335.85786437626894" y="144.14213562373106" as="targetPoint"/>
                        &#xa;                    
                    </mxGeometry>
                    &#xa;                
                </mxCell>
                &#xa;                
                <mxCell id="WNKB9fjOYrMiOc_igsey-14" value="" style="endArrow=none;html=1;strokeColor=#000000;strokeWidth=2;exitX=0;exitY=1;exitDx=0;exitDy=0;entryX=1;entryY=0;entryDx=0;entryDy=0;" edge="1" parent="WNKB9fjOYrMiOc_igsey-1" source="WNKB9fjOYrMiOc_igsey-4" target="WNKB9fjOYrMiOc_igsey-6">
                    &#xa;                    
                    <mxGeometry width="50" height="50" relative="1" as="geometry">
                        &#xa;                        
                        <mxPoint x="254.14213562373106" y="205.85786437626894" as="sourcePoint"/>
                        &#xa;                        
                        <mxPoint x="130" y="220" as="targetPoint"/>
                        &#xa;                    
                    </mxGeometry>
                    &#xa;                
                </mxCell>
                &#xa;                
                <mxCell id="WNKB9fjOYrMiOc_igsey-15" value="" style="endArrow=none;html=1;strokeColor=#000000;strokeWidth=2;entryX=1;entryY=1;entryDx=0;entryDy=0;exitX=0;exitY=0;exitDx=0;exitDy=0;" edge="1" parent="WNKB9fjOYrMiOc_igsey-1" source="WNKB9fjOYrMiOc_igsey-7" target="WNKB9fjOYrMiOc_igsey-4">
                    &#xa;                    
                    <mxGeometry width="50" height="50" relative="1" as="geometry">
                        &#xa;                        
                        <mxPoint x="264.14213562373106" y="215.85786437626894" as="sourcePoint"/>
                        &#xa;                        
                        <mxPoint x="355.85786437626894" y="164.14213562373106" as="targetPoint"/>
                        &#xa;                    
                    </mxGeometry>
                    &#xa;                
                </mxCell>
                &#xa;                
                <mxCell id="WNKB9fjOYrMiOc_igsey-16" value="" style="endArrow=none;html=1;strokeColor=#000000;strokeWidth=2;entryX=0;entryY=1;entryDx=0;entryDy=0;exitX=1;exitY=0;exitDx=0;exitDy=0;" edge="1" parent="WNKB9fjOYrMiOc_igsey-1" source="WNKB9fjOYrMiOc_igsey-8" target="WNKB9fjOYrMiOc_igsey-5">
                    &#xa;                    
                    <mxGeometry width="50" height="50" relative="1" as="geometry">
                        &#xa;                        
                        <mxPoint x="274.14213562373106" y="225.85786437626894" as="sourcePoint"/>
                        &#xa;                        
                        <mxPoint x="365.85786437626894" y="174.14213562373106" as="targetPoint"/>
                        &#xa;                    
                    </mxGeometry>
                    &#xa;                
                </mxCell>
                &#xa;                
                <mxCell id="WNKB9fjOYrMiOc_igsey-17" value="" style="endArrow=none;html=1;strokeColor=#000000;strokeWidth=2;entryX=1;entryY=1;entryDx=0;entryDy=0;exitX=0;exitY=0;exitDx=0;exitDy=0;" edge="1" parent="WNKB9fjOYrMiOc_igsey-1" source="WNKB9fjOYrMiOc_igsey-9" target="WNKB9fjOYrMiOc_igsey-5">
                    &#xa;                    
                    <mxGeometry width="50" height="50" relative="1" as="geometry">
                        &#xa;                        
                        <mxPoint x="284.14213562373106" y="235.85786437626894" as="sourcePoint"/>
                        &#xa;                        
                        <mxPoint x="375.85786437626894" y="184.14213562373106" as="targetPoint"/>
                        &#xa;                    
                    </mxGeometry>
                    &#xa;                
                </mxCell>
                &#xa;                
                <mxCell id="WNKB9fjOYrMiOc_igsey-18" value="" style="endArrow=none;html=1;strokeColor=#000000;strokeWidth=2;entryX=1;entryY=1;entryDx=0;entryDy=0;exitX=0;exitY=0;exitDx=0;exitDy=0;" edge="1" parent="WNKB9fjOYrMiOc_igsey-1" source="WNKB9fjOYrMiOc_igsey-11" target="WNKB9fjOYrMiOc_igsey-7">
                    &#xa;                    
                    <mxGeometry width="50" height="50" relative="1" as="geometry">
                        &#xa;                        
                        <mxPoint x="294.14213562373106" y="245.85786437626894" as="sourcePoint"/>
                        &#xa;                        
                        <mxPoint x="385.85786437626894" y="194.14213562373106" as="targetPoint"/>
                        &#xa;                    
                    </mxGeometry>
                    &#xa;                
                </mxCell>
                &#xa;                
                <mxCell id="WNKB9fjOYrMiOc_igsey-19" value="" style="endArrow=none;html=1;strokeColor=#000000;strokeWidth=2;entryX=1;entryY=0;entryDx=0;entryDy=0;exitX=0;exitY=1;exitDx=0;exitDy=0;" edge="1" parent="WNKB9fjOYrMiOc_igsey-1" source="WNKB9fjOYrMiOc_igsey-7" target="WNKB9fjOYrMiOc_igsey-10">
                    &#xa;                    
                    <mxGeometry width="50" height="50" relative="1" as="geometry">
                        &#xa;                        
                        <mxPoint x="304.14213562373106" y="255.85786437626894" as="sourcePoint"/>
                        &#xa;                        
                        <mxPoint x="395.85786437626894" y="204.14213562373106" as="targetPoint"/>
                        &#xa;                    
                    </mxGeometry>
                    &#xa;                
                </mxCell>
                &#xa;                
                <mxCell id="WNKB9fjOYrMiOc_igsey-20" value="&lt;font style=&quot;font-size: 16px&quot; color=&quot;#000000&quot;&gt;Search Key: 20&lt;/font&gt;" style="text;html=1;strokeColor=none;fillColor=none;align=center;verticalAlign=middle;whiteSpace=wrap;rounded=0;" vertex="1" parent="WNKB9fjOYrMiOc_igsey-1">
                    &#xa;                    
                    <mxGeometry x="140" y="50" width="120" height="20" as="geometry"/>
                    &#xa;                
                </mxCell>
                &#xa;                
                <mxCell id="WNKB9fjOYrMiOc_igsey-21" value="" style="html=1;shadow=0;dashed=0;align=center;verticalAlign=middle;shape=mxgraph.arrows2.arrow;dy=0.52;dx=24.67;notch=0;strokeColor=#FF9933;fillColor=#FF9933;" vertex="1" parent="WNKB9fjOYrMiOc_igsey-1">
                    &#xa;                    
                    <mxGeometry x="210" y="250" width="40" height="20" as="geometry"/>
                    &#xa;                
                </mxCell>
                &#xa;            
            </root>
            &#xa;        
        </mxGraphModel>
        &#xa;    
    </diagram>
    <diagram name="05" id="vLJIwDODaOsQZpBBP4Ai">
        &#xa;        
        <mxGraphModel dx="571" dy="623" grid="1" gridSize="10" guides="1" tooltips="1" connect="1" arrows="1" fold="1" page="1" pageScale="1" pageWidth="827" pageHeight="1169" math="0" shadow="0">
            &#xa;            
            <root>
                &#xa;                
                <mxCell id="OXOY9oS_qfi8opJCfRy4-0"/>
                &#xa;                
                <mxCell id="OXOY9oS_qfi8opJCfRy4-1" parent="OXOY9oS_qfi8opJCfRy4-0"/>
                &#xa;                
                <mxCell id="OXOY9oS_qfi8opJCfRy4-2" value="" style="rounded=0;whiteSpace=wrap;html=1;fillColor=#FFFFFF;strokeColor=none;" vertex="1" parent="OXOY9oS_qfi8opJCfRy4-1">
                    &#xa;                    
                    <mxGeometry x="100" y="20" width="480" height="360" as="geometry"/>
                    &#xa;                
                </mxCell>
                &#xa;                
                <mxCell id="OXOY9oS_qfi8opJCfRy4-3" value="23" style="ellipse;whiteSpace=wrap;html=1;aspect=fixed;strokeColor=#006EAF;strokeWidth=2;fillColor=#1ba1e2;fontColor=#ffffff;" vertex="1" parent="OXOY9oS_qfi8opJCfRy4-1">
                    &#xa;                    
                    <mxGeometry x="320" y="100" width="40" height="40" as="geometry"/>
                    &#xa;                
                </mxCell>
                &#xa;                
                <mxCell id="OXOY9oS_qfi8opJCfRy4-4" value="4&lt;span style=&quot;color: rgba(0 , 0 , 0 , 0) ; font-family: monospace ; font-size: 0px&quot;&gt;%3CmxGraphModel%3E%3Croot%3E%3CmxCell%20id%3D%220%22%2F%3E%3CmxCell%20id%3D%221%22%20parent%3D%220%22%2F%3E%3CmxCell%20id%3D%222%22%20value%3D%2223%22%20style%3D%22ellipse%3BwhiteSpace%3Dwrap%3Bhtml%3D1%3Baspect%3Dfixed%3BstrokeColor%3D%23006EAF%3BstrokeWidth%3D2%3BfillColor%3D%231ba1e2%3BfontColor%3D%23ffffff%3B%22%20vertex%3D%221%22%20parent%3D%221%22%3E%3CmxGeometry%20x%3D%22320%22%20y%3D%22120%22%20width%3D%2240%22%20height%3D%2240%22%20as%3D%22geometry%22%2F%3E%3C%2FmxCell%3E%3C%2Froot%3E%3C%2FmxGraphModel%3E&lt;/span&gt;" style="ellipse;whiteSpace=wrap;html=1;aspect=fixed;strokeColor=#006EAF;strokeWidth=2;fillColor=#1ba1e2;fontColor=#ffffff;" vertex="1" parent="OXOY9oS_qfi8opJCfRy4-1">
                    &#xa;                    
                    <mxGeometry x="200" y="180" width="40" height="40" as="geometry"/>
                    &#xa;                
                </mxCell>
                &#xa;                
                <mxCell id="OXOY9oS_qfi8opJCfRy4-5" value="30" style="ellipse;whiteSpace=wrap;html=1;aspect=fixed;strokeColor=#006EAF;strokeWidth=2;fillColor=#1ba1e2;fontColor=#ffffff;" vertex="1" parent="OXOY9oS_qfi8opJCfRy4-1">
                    &#xa;                    
                    <mxGeometry x="440" y="180" width="40" height="40" as="geometry"/>
                    &#xa;                
                </mxCell>
                &#xa;                
                <mxCell id="OXOY9oS_qfi8opJCfRy4-6" value="1" style="ellipse;whiteSpace=wrap;html=1;aspect=fixed;strokeColor=#006EAF;strokeWidth=2;fillColor=#1ba1e2;fontColor=#ffffff;" vertex="1" parent="OXOY9oS_qfi8opJCfRy4-1">
                    &#xa;                    
                    <mxGeometry x="140" y="240" width="40" height="40" as="geometry"/>
                    &#xa;                
                </mxCell>
                &#xa;                
                <mxCell id="OXOY9oS_qfi8opJCfRy4-7" value="11" style="ellipse;whiteSpace=wrap;html=1;aspect=fixed;strokeColor=#006EAF;strokeWidth=2;fillColor=#1ba1e2;fontColor=#ffffff;" vertex="1" parent="OXOY9oS_qfi8opJCfRy4-1">
                    &#xa;                    
                    <mxGeometry x="260" y="240" width="40" height="40" as="geometry"/>
                    &#xa;                
                </mxCell>
                &#xa;                
                <mxCell id="OXOY9oS_qfi8opJCfRy4-8" value="24" style="ellipse;whiteSpace=wrap;html=1;aspect=fixed;strokeColor=#006EAF;strokeWidth=2;fillColor=#1ba1e2;fontColor=#ffffff;" vertex="1" parent="OXOY9oS_qfi8opJCfRy4-1">
                    &#xa;                    
                    <mxGeometry x="380" y="240" width="40" height="40" as="geometry"/>
                    &#xa;                
                </mxCell>
                &#xa;                
                <mxCell id="OXOY9oS_qfi8opJCfRy4-9" value="34" style="ellipse;whiteSpace=wrap;html=1;aspect=fixed;strokeColor=#006EAF;strokeWidth=2;fillColor=#1ba1e2;fontColor=#ffffff;" vertex="1" parent="OXOY9oS_qfi8opJCfRy4-1">
                    &#xa;                    
                    <mxGeometry x="500" y="240" width="40" height="40" as="geometry"/>
                    &#xa;                
                </mxCell>
                &#xa;                
                <mxCell id="OXOY9oS_qfi8opJCfRy4-10" value="7" style="ellipse;whiteSpace=wrap;html=1;aspect=fixed;strokeColor=#006EAF;strokeWidth=2;fillColor=#1ba1e2;fontColor=#ffffff;" vertex="1" parent="OXOY9oS_qfi8opJCfRy4-1">
                    &#xa;                    
                    <mxGeometry x="210" y="300" width="40" height="40" as="geometry"/>
                    &#xa;                
                </mxCell>
                &#xa;                
                <mxCell id="OXOY9oS_qfi8opJCfRy4-11" value="20" style="ellipse;whiteSpace=wrap;html=1;aspect=fixed;strokeColor=#FF9933;strokeWidth=2;fillColor=#1ba1e2;fontColor=#ffffff;" vertex="1" parent="OXOY9oS_qfi8opJCfRy4-1">
                    &#xa;                    
                    <mxGeometry x="310" y="300" width="40" height="40" as="geometry"/>
                    &#xa;                
                </mxCell>
                &#xa;                
                <mxCell id="OXOY9oS_qfi8opJCfRy4-12" value="" style="endArrow=none;html=1;strokeColor=#000000;strokeWidth=2;entryX=0;entryY=1;entryDx=0;entryDy=0;exitX=1;exitY=0;exitDx=0;exitDy=0;" edge="1" parent="OXOY9oS_qfi8opJCfRy4-1" source="OXOY9oS_qfi8opJCfRy4-4" target="OXOY9oS_qfi8opJCfRy4-3">
                    &#xa;                    
                    <mxGeometry width="50" height="50" relative="1" as="geometry">
                        &#xa;                        
                        <mxPoint x="400" y="510" as="sourcePoint"/>
                        &#xa;                        
                        <mxPoint x="450" y="460" as="targetPoint"/>
                        &#xa;                    
                    </mxGeometry>
                    &#xa;                
                </mxCell>
                &#xa;                
                <mxCell id="OXOY9oS_qfi8opJCfRy4-13" value="" style="endArrow=none;html=1;strokeColor=#000000;strokeWidth=2;entryX=1;entryY=1;entryDx=0;entryDy=0;exitX=0;exitY=0;exitDx=0;exitDy=0;" edge="1" parent="OXOY9oS_qfi8opJCfRy4-1" source="OXOY9oS_qfi8opJCfRy4-5" target="OXOY9oS_qfi8opJCfRy4-3">
                    &#xa;                    
                    <mxGeometry width="50" height="50" relative="1" as="geometry">
                        &#xa;                        
                        <mxPoint x="244.14213562373106" y="195.85786437626894" as="sourcePoint"/>
                        &#xa;                        
                        <mxPoint x="335.85786437626894" y="144.14213562373106" as="targetPoint"/>
                        &#xa;                    
                    </mxGeometry>
                    &#xa;                
                </mxCell>
                &#xa;                
                <mxCell id="OXOY9oS_qfi8opJCfRy4-14" value="" style="endArrow=none;html=1;strokeColor=#000000;strokeWidth=2;exitX=0;exitY=1;exitDx=0;exitDy=0;entryX=1;entryY=0;entryDx=0;entryDy=0;" edge="1" parent="OXOY9oS_qfi8opJCfRy4-1" source="OXOY9oS_qfi8opJCfRy4-4" target="OXOY9oS_qfi8opJCfRy4-6">
                    &#xa;                    
                    <mxGeometry width="50" height="50" relative="1" as="geometry">
                        &#xa;                        
                        <mxPoint x="254.14213562373106" y="205.85786437626894" as="sourcePoint"/>
                        &#xa;                        
                        <mxPoint x="130" y="220" as="targetPoint"/>
                        &#xa;                    
                    </mxGeometry>
                    &#xa;                
                </mxCell>
                &#xa;                
                <mxCell id="OXOY9oS_qfi8opJCfRy4-15" value="" style="endArrow=none;html=1;strokeColor=#000000;strokeWidth=2;entryX=1;entryY=1;entryDx=0;entryDy=0;exitX=0;exitY=0;exitDx=0;exitDy=0;" edge="1" parent="OXOY9oS_qfi8opJCfRy4-1" source="OXOY9oS_qfi8opJCfRy4-7" target="OXOY9oS_qfi8opJCfRy4-4">
                    &#xa;                    
                    <mxGeometry width="50" height="50" relative="1" as="geometry">
                        &#xa;                        
                        <mxPoint x="264.14213562373106" y="215.85786437626894" as="sourcePoint"/>
                        &#xa;                        
                        <mxPoint x="355.85786437626894" y="164.14213562373106" as="targetPoint"/>
                        &#xa;                    
                    </mxGeometry>
                    &#xa;                
                </mxCell>
                &#xa;                
                <mxCell id="OXOY9oS_qfi8opJCfRy4-16" value="" style="endArrow=none;html=1;strokeColor=#000000;strokeWidth=2;entryX=0;entryY=1;entryDx=0;entryDy=0;exitX=1;exitY=0;exitDx=0;exitDy=0;" edge="1" parent="OXOY9oS_qfi8opJCfRy4-1" source="OXOY9oS_qfi8opJCfRy4-8" target="OXOY9oS_qfi8opJCfRy4-5">
                    &#xa;                    
                    <mxGeometry width="50" height="50" relative="1" as="geometry">
                        &#xa;                        
                        <mxPoint x="274.14213562373106" y="225.85786437626894" as="sourcePoint"/>
                        &#xa;                        
                        <mxPoint x="365.85786437626894" y="174.14213562373106" as="targetPoint"/>
                        &#xa;                    
                    </mxGeometry>
                    &#xa;                
                </mxCell>
                &#xa;                
                <mxCell id="OXOY9oS_qfi8opJCfRy4-17" value="" style="endArrow=none;html=1;strokeColor=#000000;strokeWidth=2;entryX=1;entryY=1;entryDx=0;entryDy=0;exitX=0;exitY=0;exitDx=0;exitDy=0;" edge="1" parent="OXOY9oS_qfi8opJCfRy4-1" source="OXOY9oS_qfi8opJCfRy4-9" target="OXOY9oS_qfi8opJCfRy4-5">
                    &#xa;                    
                    <mxGeometry width="50" height="50" relative="1" as="geometry">
                        &#xa;                        
                        <mxPoint x="284.14213562373106" y="235.85786437626894" as="sourcePoint"/>
                        &#xa;                        
                        <mxPoint x="375.85786437626894" y="184.14213562373106" as="targetPoint"/>
                        &#xa;                    
                    </mxGeometry>
                    &#xa;                
                </mxCell>
                &#xa;                
                <mxCell id="OXOY9oS_qfi8opJCfRy4-18" value="" style="endArrow=none;html=1;strokeColor=#000000;strokeWidth=2;entryX=1;entryY=1;entryDx=0;entryDy=0;exitX=0;exitY=0;exitDx=0;exitDy=0;" edge="1" parent="OXOY9oS_qfi8opJCfRy4-1" source="OXOY9oS_qfi8opJCfRy4-11" target="OXOY9oS_qfi8opJCfRy4-7">
                    &#xa;                    
                    <mxGeometry width="50" height="50" relative="1" as="geometry">
                        &#xa;                        
                        <mxPoint x="294.14213562373106" y="245.85786437626894" as="sourcePoint"/>
                        &#xa;                        
                        <mxPoint x="385.85786437626894" y="194.14213562373106" as="targetPoint"/>
                        &#xa;                    
                    </mxGeometry>
                    &#xa;                
                </mxCell>
                &#xa;                
                <mxCell id="OXOY9oS_qfi8opJCfRy4-19" value="" style="endArrow=none;html=1;strokeColor=#000000;strokeWidth=2;entryX=1;entryY=0;entryDx=0;entryDy=0;exitX=0;exitY=1;exitDx=0;exitDy=0;" edge="1" parent="OXOY9oS_qfi8opJCfRy4-1" source="OXOY9oS_qfi8opJCfRy4-7" target="OXOY9oS_qfi8opJCfRy4-10">
                    &#xa;                    
                    <mxGeometry width="50" height="50" relative="1" as="geometry">
                        &#xa;                        
                        <mxPoint x="304.14213562373106" y="255.85786437626894" as="sourcePoint"/>
                        &#xa;                        
                        <mxPoint x="395.85786437626894" y="204.14213562373106" as="targetPoint"/>
                        &#xa;                    
                    </mxGeometry>
                    &#xa;                
                </mxCell>
                &#xa;                
                <mxCell id="OXOY9oS_qfi8opJCfRy4-20" value="&lt;font style=&quot;font-size: 16px&quot; color=&quot;#000000&quot;&gt;Search Key: 20&lt;/font&gt;" style="text;html=1;strokeColor=none;fillColor=none;align=center;verticalAlign=middle;whiteSpace=wrap;rounded=0;" vertex="1" parent="OXOY9oS_qfi8opJCfRy4-1">
                    &#xa;                    
                    <mxGeometry x="140" y="50" width="120" height="20" as="geometry"/>
                    &#xa;                
                </mxCell>
                &#xa;                
                <mxCell id="OXOY9oS_qfi8opJCfRy4-21" value="" style="html=1;shadow=0;dashed=0;align=center;verticalAlign=middle;shape=mxgraph.arrows2.arrow;dy=0.52;dx=24.67;notch=0;strokeColor=#FF9933;fillColor=#FF9933;" vertex="1" parent="OXOY9oS_qfi8opJCfRy4-1">
                    &#xa;                    
                    <mxGeometry x="265" y="310" width="40" height="20" as="geometry"/>
                    &#xa;                
                </mxCell>
                &#xa;            
            </root>
            &#xa;        
        </mxGraphModel>
        &#xa;    
    </diagram>
    <diagram name="06" id="jdGPXie0gubcXsUzYvxX">
        <mxGraphModel dx="1766" dy="1154" grid="1" gridSize="10" guides="1" tooltips="1" connect="1" arrows="1" fold="1" page="1" pageScale="1" pageWidth="827" pageHeight="1169" math="0" shadow="0">
            <root>
                <mxCell id="FOGCgNfSMbgXP8PYWGNG-0"/>
                <mxCell id="FOGCgNfSMbgXP8PYWGNG-1" parent="FOGCgNfSMbgXP8PYWGNG-0"/>
                <mxCell id="FOGCgNfSMbgXP8PYWGNG-2" value="" style="rounded=0;whiteSpace=wrap;html=1;fillColor=#FFFFFF;strokeColor=none;" parent="FOGCgNfSMbgXP8PYWGNG-1" vertex="1">
                    <mxGeometry x="100" y="20" width="480" height="360" as="geometry"/>
                </mxCell>
                <mxCell id="FOGCgNfSMbgXP8PYWGNG-3" value="23" style="ellipse;whiteSpace=wrap;html=1;aspect=fixed;strokeColor=#006EAF;strokeWidth=2;fillColor=#1ba1e2;fontColor=#ffffff;" parent="FOGCgNfSMbgXP8PYWGNG-1" vertex="1">
                    <mxGeometry x="320" y="100" width="40" height="40" as="geometry"/>
                </mxCell>
                <mxCell id="FOGCgNfSMbgXP8PYWGNG-4" value="4&lt;span style=&quot;color: rgba(0 , 0 , 0 , 0) ; font-family: monospace ; font-size: 0px&quot;&gt;%3CmxGraphModel%3E%3Croot%3E%3CmxCell%20id%3D%220%22%2F%3E%3CmxCell%20id%3D%221%22%20parent%3D%220%22%2F%3E%3CmxCell%20id%3D%222%22%20value%3D%2223%22%20style%3D%22ellipse%3BwhiteSpace%3Dwrap%3Bhtml%3D1%3Baspect%3Dfixed%3BstrokeColor%3D%23006EAF%3BstrokeWidth%3D2%3BfillColor%3D%231ba1e2%3BfontColor%3D%23ffffff%3B%22%20vertex%3D%221%22%20parent%3D%221%22%3E%3CmxGeometry%20x%3D%22320%22%20y%3D%22120%22%20width%3D%2240%22%20height%3D%2240%22%20as%3D%22geometry%22%2F%3E%3C%2FmxCell%3E%3C%2Froot%3E%3C%2FmxGraphModel%3E&lt;/span&gt;" style="ellipse;whiteSpace=wrap;html=1;aspect=fixed;strokeColor=#006EAF;strokeWidth=2;fillColor=#1ba1e2;fontColor=#ffffff;" parent="FOGCgNfSMbgXP8PYWGNG-1" vertex="1">
                    <mxGeometry x="200" y="180" width="40" height="40" as="geometry"/>
                </mxCell>
                <mxCell id="FOGCgNfSMbgXP8PYWGNG-5" value="30" style="ellipse;whiteSpace=wrap;html=1;aspect=fixed;strokeColor=#006EAF;strokeWidth=2;fillColor=#1ba1e2;fontColor=#ffffff;" parent="FOGCgNfSMbgXP8PYWGNG-1" vertex="1">
                    <mxGeometry x="440" y="180" width="40" height="40" as="geometry"/>
                </mxCell>
                <mxCell id="FOGCgNfSMbgXP8PYWGNG-6" value="1" style="ellipse;whiteSpace=wrap;html=1;aspect=fixed;strokeColor=#006EAF;strokeWidth=2;fillColor=#1ba1e2;fontColor=#ffffff;" parent="FOGCgNfSMbgXP8PYWGNG-1" vertex="1">
                    <mxGeometry x="140" y="240" width="40" height="40" as="geometry"/>
                </mxCell>
                <mxCell id="FOGCgNfSMbgXP8PYWGNG-7" value="11" style="ellipse;whiteSpace=wrap;html=1;aspect=fixed;strokeColor=#006EAF;strokeWidth=2;fillColor=#1ba1e2;fontColor=#ffffff;" parent="FOGCgNfSMbgXP8PYWGNG-1" vertex="1">
                    <mxGeometry x="260" y="240" width="40" height="40" as="geometry"/>
                </mxCell>
                <mxCell id="FOGCgNfSMbgXP8PYWGNG-8" value="24" style="ellipse;whiteSpace=wrap;html=1;aspect=fixed;strokeColor=#006EAF;strokeWidth=2;fillColor=#1ba1e2;fontColor=#ffffff;" parent="FOGCgNfSMbgXP8PYWGNG-1" vertex="1">
                    <mxGeometry x="380" y="240" width="40" height="40" as="geometry"/>
                </mxCell>
                <mxCell id="FOGCgNfSMbgXP8PYWGNG-9" value="34" style="ellipse;whiteSpace=wrap;html=1;aspect=fixed;strokeColor=#006EAF;strokeWidth=2;fillColor=#1ba1e2;fontColor=#ffffff;" parent="FOGCgNfSMbgXP8PYWGNG-1" vertex="1">
                    <mxGeometry x="500" y="240" width="40" height="40" as="geometry"/>
                </mxCell>
                <mxCell id="FOGCgNfSMbgXP8PYWGNG-10" value="7" style="ellipse;whiteSpace=wrap;html=1;aspect=fixed;strokeColor=#006EAF;strokeWidth=2;fillColor=#1ba1e2;fontColor=#ffffff;" parent="FOGCgNfSMbgXP8PYWGNG-1" vertex="1">
                    <mxGeometry x="210" y="300" width="40" height="40" as="geometry"/>
                </mxCell>
                <mxCell id="FOGCgNfSMbgXP8PYWGNG-11" value="20" style="ellipse;whiteSpace=wrap;html=1;aspect=fixed;strokeColor=#FF9933;strokeWidth=2;fillColor=#1ba1e2;fontColor=#ffffff;" parent="FOGCgNfSMbgXP8PYWGNG-1" vertex="1">
                    <mxGeometry x="310" y="300" width="40" height="40" as="geometry"/>
                </mxCell>
                <mxCell id="FOGCgNfSMbgXP8PYWGNG-12" value="" style="endArrow=none;html=1;strokeColor=#000000;strokeWidth=2;entryX=0;entryY=1;entryDx=0;entryDy=0;exitX=1;exitY=0;exitDx=0;exitDy=0;" parent="FOGCgNfSMbgXP8PYWGNG-1" source="FOGCgNfSMbgXP8PYWGNG-4" target="FOGCgNfSMbgXP8PYWGNG-3" edge="1">
                    <mxGeometry width="50" height="50" relative="1" as="geometry">
                        <mxPoint x="400" y="510" as="sourcePoint"/>
                        <mxPoint x="450" y="460" as="targetPoint"/>
                    </mxGeometry>
                </mxCell>
                <mxCell id="FOGCgNfSMbgXP8PYWGNG-13" value="" style="endArrow=none;html=1;strokeColor=#000000;strokeWidth=2;entryX=1;entryY=1;entryDx=0;entryDy=0;exitX=0;exitY=0;exitDx=0;exitDy=0;" parent="FOGCgNfSMbgXP8PYWGNG-1" source="FOGCgNfSMbgXP8PYWGNG-5" target="FOGCgNfSMbgXP8PYWGNG-3" edge="1">
                    <mxGeometry width="50" height="50" relative="1" as="geometry">
                        <mxPoint x="244.14213562373106" y="195.85786437626894" as="sourcePoint"/>
                        <mxPoint x="335.85786437626894" y="144.14213562373106" as="targetPoint"/>
                    </mxGeometry>
                </mxCell>
                <mxCell id="FOGCgNfSMbgXP8PYWGNG-14" value="" style="endArrow=none;html=1;strokeColor=#000000;strokeWidth=2;exitX=0;exitY=1;exitDx=0;exitDy=0;entryX=1;entryY=0;entryDx=0;entryDy=0;" parent="FOGCgNfSMbgXP8PYWGNG-1" source="FOGCgNfSMbgXP8PYWGNG-4" target="FOGCgNfSMbgXP8PYWGNG-6" edge="1">
                    <mxGeometry width="50" height="50" relative="1" as="geometry">
                        <mxPoint x="254.14213562373106" y="205.85786437626894" as="sourcePoint"/>
                        <mxPoint x="130" y="220" as="targetPoint"/>
                    </mxGeometry>
                </mxCell>
                <mxCell id="FOGCgNfSMbgXP8PYWGNG-15" value="" style="endArrow=none;html=1;strokeColor=#000000;strokeWidth=2;entryX=1;entryY=1;entryDx=0;entryDy=0;exitX=0;exitY=0;exitDx=0;exitDy=0;" parent="FOGCgNfSMbgXP8PYWGNG-1" source="FOGCgNfSMbgXP8PYWGNG-7" target="FOGCgNfSMbgXP8PYWGNG-4" edge="1">
                    <mxGeometry width="50" height="50" relative="1" as="geometry">
                        <mxPoint x="264.14213562373106" y="215.85786437626894" as="sourcePoint"/>
                        <mxPoint x="355.85786437626894" y="164.14213562373106" as="targetPoint"/>
                    </mxGeometry>
                </mxCell>
                <mxCell id="FOGCgNfSMbgXP8PYWGNG-16" value="" style="endArrow=none;html=1;strokeColor=#000000;strokeWidth=2;entryX=0;entryY=1;entryDx=0;entryDy=0;exitX=1;exitY=0;exitDx=0;exitDy=0;" parent="FOGCgNfSMbgXP8PYWGNG-1" source="FOGCgNfSMbgXP8PYWGNG-8" target="FOGCgNfSMbgXP8PYWGNG-5" edge="1">
                    <mxGeometry width="50" height="50" relative="1" as="geometry">
                        <mxPoint x="274.14213562373106" y="225.85786437626894" as="sourcePoint"/>
                        <mxPoint x="365.85786437626894" y="174.14213562373106" as="targetPoint"/>
                    </mxGeometry>
                </mxCell>
                <mxCell id="FOGCgNfSMbgXP8PYWGNG-17" value="" style="endArrow=none;html=1;strokeColor=#000000;strokeWidth=2;entryX=1;entryY=1;entryDx=0;entryDy=0;exitX=0;exitY=0;exitDx=0;exitDy=0;" parent="FOGCgNfSMbgXP8PYWGNG-1" source="FOGCgNfSMbgXP8PYWGNG-9" target="FOGCgNfSMbgXP8PYWGNG-5" edge="1">
                    <mxGeometry width="50" height="50" relative="1" as="geometry">
                        <mxPoint x="284.14213562373106" y="235.85786437626894" as="sourcePoint"/>
                        <mxPoint x="375.85786437626894" y="184.14213562373106" as="targetPoint"/>
                    </mxGeometry>
                </mxCell>
                <mxCell id="FOGCgNfSMbgXP8PYWGNG-18" value="" style="endArrow=none;html=1;strokeColor=#000000;strokeWidth=2;entryX=1;entryY=1;entryDx=0;entryDy=0;exitX=0;exitY=0;exitDx=0;exitDy=0;" parent="FOGCgNfSMbgXP8PYWGNG-1" source="FOGCgNfSMbgXP8PYWGNG-11" target="FOGCgNfSMbgXP8PYWGNG-7" edge="1">
                    <mxGeometry width="50" height="50" relative="1" as="geometry">
                        <mxPoint x="294.14213562373106" y="245.85786437626894" as="sourcePoint"/>
                        <mxPoint x="385.85786437626894" y="194.14213562373106" as="targetPoint"/>
                    </mxGeometry>
                </mxCell>
                <mxCell id="FOGCgNfSMbgXP8PYWGNG-19" value="" style="endArrow=none;html=1;strokeColor=#000000;strokeWidth=2;entryX=1;entryY=0;entryDx=0;entryDy=0;exitX=0;exitY=1;exitDx=0;exitDy=0;" parent="FOGCgNfSMbgXP8PYWGNG-1" source="FOGCgNfSMbgXP8PYWGNG-7" target="FOGCgNfSMbgXP8PYWGNG-10" edge="1">
                    <mxGeometry width="50" height="50" relative="1" as="geometry">
                        <mxPoint x="304.14213562373106" y="255.85786437626894" as="sourcePoint"/>
                        <mxPoint x="395.85786437626894" y="204.14213562373106" as="targetPoint"/>
                    </mxGeometry>
                </mxCell>
                <mxCell id="FOGCgNfSMbgXP8PYWGNG-20" value="&lt;font style=&quot;font-size: 16px&quot; color=&quot;#000000&quot;&gt;Search Key: 20&lt;/font&gt;" style="text;html=1;strokeColor=none;fillColor=none;align=center;verticalAlign=middle;whiteSpace=wrap;rounded=0;" parent="FOGCgNfSMbgXP8PYWGNG-1" vertex="1">
                    <mxGeometry x="140" y="50" width="120" height="20" as="geometry"/>
                </mxCell>
                <mxCell id="Fqy0MniW-oYSa1fMUReR-0" value="&lt;font color=&quot;#ff9933&quot; style=&quot;font-size: 14px&quot;&gt;&lt;b&gt;Found&lt;/b&gt;&lt;/font&gt;" style="text;html=1;strokeColor=none;fillColor=none;align=center;verticalAlign=middle;whiteSpace=wrap;rounded=0;" vertex="1" parent="FOGCgNfSMbgXP8PYWGNG-1">
                    <mxGeometry x="310" y="340" width="40" height="20" as="geometry"/>
                </mxCell>
            </root>
        </mxGraphModel>
    </diagram>
</mxfile>